<svg width="259" height="514" viewBox="0 0 259 514" fill="none" xmlns="http://www.w3.org/2000/svg">
<path d="M0 109.5C0 109.5 82 109.5 85.5 109.5C89 109.5 113 109.5 121.5 101C130 92.5 129.5 67.5 129.5 67.5V0" stroke="#BDBDBD"/>
<path d="M0 312.5C0 312.5 82 312.5 85.5 312.5C89 312.5 113 312.5 121.5 304C130 295.5 129.5 270.5 129.5 270.5V0" stroke="#BDBDBD"/>
<path d="M0 513.5C0 513.5 82 513.5 85.5 513.5C89 513.5 113 513.5 121.5 505C130 496.5 129.5 471.5 129.5 471.5V0" stroke="#BDBDBD"/>
<path d="M258.505 109.5C258.505 109.5 176.505 109.5 173.005 109.5C169.505 109.5 145.505 109.5 137.005 101C128.505 92.5 129.005 67.5 129.005 67.5V0" stroke="#BDBDBD"/>
<path d="M258.505 312.5C258.505 312.5 176.505 312.5 173.005 312.5C169.505 312.5 145.505 312.5 137.005 304C128.505 295.5 129.005 270.5 129.005 270.5V0" stroke="#BDBDBD"/>
<path d="M258.505 513.5C258.505 513.5 176.505 513.5 173.005 513.5C169.505 513.5 145.505 513.5 137.005 505C128.505 496.5 129.005 471.5 129.005 471.5V0" stroke="#BDBDBD"/>
</svg>
