<svg width="24" height="24" viewBox="0 0 24 24" fill="none" xmlns="http://www.w3.org/2000/svg">
<path d="M12 22C6.477 22 2 17.523 2 12C2 11.537 2.694 11.46 2.933 11.857C3.44276 12.7013 4.13797 13.4186 4.96599 13.9545C5.794 14.4903 6.73311 14.8307 7.71217 14.9499C8.69123 15.0691 9.68457 14.9639 10.617 14.6423C11.5493 14.3207 12.3963 13.7911 13.0937 13.0937C13.7911 12.3963 14.3207 11.5493 14.6423 10.617C14.9639 9.68457 15.0691 8.69123 14.9499 7.71217C14.8307 6.73311 14.4903 5.794 13.9545 4.96599C13.4186 4.13797 12.7013 3.44275 11.857 2.933C11.46 2.693 11.537 2 12 2C17.523 2 22 6.477 22 12C22 17.523 17.523 22 12 22Z" fill="#0C0A20"/>
</svg>
